<svg xmlns="http://www.w3.org/2000/svg" width="2215.82" height="360.33" viewBox="0 0 2215.82 360.33"><title>WTM logo_horiz_white_rgb</title><g id="Layer_2" data-name="Layer 2"><g id="Layer_1-2" data-name="Layer 1"><path d="M516.8,24.62h17.67l24.45,98.9,2.25,9.21h.76l2.81-9.21,30.09-98.9h16.55l28.77,98.9,2.82,9.21h.75L670.23,24.62h17.68L651.62,159.25H635.07l-28.58-97.4-3-10.53h-.75l-3.2,10.53-29.71,97.4H553.28Z" fill="#fff"/><path d="M711,155.48a47.28,47.28,0,0,1-17.59-18.42,53.33,53.33,0,0,1-6.3-25.76,53.27,53.27,0,0,1,6.3-25.76A47.31,47.31,0,0,1,711,67.11a51,51,0,0,1,50.76,0,47.45,47.45,0,0,1,17.59,18.43,53.38,53.38,0,0,1,6.29,25.76,53.44,53.44,0,0,1-6.29,25.76,47.42,47.42,0,0,1-17.59,18.42,50.89,50.89,0,0,1-50.76,0Zm41.83-12.12a32.58,32.58,0,0,0,12.22-12.7,39,39,0,0,0,4.61-19.36,39.06,39.06,0,0,0-4.61-19.37,32.78,32.78,0,0,0-12.22-12.7,32.27,32.27,0,0,0-16.45-4.4,32.59,32.59,0,0,0-28.87,17.1A39.16,39.16,0,0,0,703,111.3a39.13,39.13,0,0,0,4.6,19.36,32.47,32.47,0,0,0,12.32,12.7,32.8,32.8,0,0,0,16.55,4.41A32.28,32.28,0,0,0,752.87,143.36Z" fill="#fff"/><path d="M802.41,63.35h15.23V77.46h.75a33.16,33.16,0,0,1,12.42-12.23,33.79,33.79,0,0,1,17.48-4.88,32.93,32.93,0,0,1,18.34,5.06A28.45,28.45,0,0,1,877.81,79a39.21,39.21,0,0,1,13.45-13.55,36.8,36.8,0,0,1,19.46-5.06q16.54,0,24.91,10.05T944,97.76v61.49H928.2v-59q0-13.35-5.45-19.37t-16.17-6a21.86,21.86,0,0,0-13,4.13,27.8,27.8,0,0,0-9.12,11.09,34.67,34.67,0,0,0-3.29,15v54.16h-16V100.39q0-13.53-5.45-19.55t-16-6a21.52,21.52,0,0,0-13,4.22,28.4,28.4,0,0,0-9.12,11.28,35.34,35.34,0,0,0-3.3,15.14v53.78h-16Z" fill="#fff"/><path d="M985,155.68a45.67,45.67,0,0,1-17-18.15,54.92,54.92,0,0,1-6.11-26,57.05,57.05,0,0,1,5.74-25.57A46.35,46.35,0,0,1,983.86,67.3a43.31,43.31,0,0,1,24.45-6.95q14.1,0,24.44,6.29A42,42,0,0,1,1048.64,84a56.07,56.07,0,0,1,5.55,25.38,18.42,18.42,0,0,1-.57,4.88H977.84q.57,10.9,5.27,18.43A30.63,30.63,0,0,0,995.05,144a32.34,32.34,0,0,0,15.14,3.75q18.42,0,28.39-17.29l13.54,6.58a48.3,48.3,0,0,1-16.83,18.42q-10.62,6.78-25.67,6.78A46.8,46.8,0,0,1,985,155.68Zm52.27-54.54a31.19,31.19,0,0,0-3.38-12,25.56,25.56,0,0,0-9.5-10.16q-6.48-4.14-16.26-4.13A27.06,27.06,0,0,0,989,82.06q-7.8,7.23-10.25,19.08Z" fill="#fff"/><path d="M1072.8,63.35H1088V77.46h.75q3.95-7.17,12.6-12.14a36.32,36.32,0,0,1,18.43-5q17.3,0,26.41,10.05t9.12,27.36v61.49h-16v-59q0-13.35-6.39-19.37t-17.49-6a23.34,23.34,0,0,0-13.82,4.31,29.28,29.28,0,0,0-9.5,11.38,33.81,33.81,0,0,0-3.38,14.76v54h-16Z" fill="#fff"/><path d="M1245.23,39.84h-37.8V24.62h91.38V39.84h-37.6V159.25h-16Z" fill="#fff"/><path d="M1318.74,155.68a45.67,45.67,0,0,1-17-18.15,54.92,54.92,0,0,1-6.11-26,57.05,57.05,0,0,1,5.74-25.57,46.35,46.35,0,0,1,16.26-18.62,43.31,43.31,0,0,1,24.45-6.95q14.1,0,24.44,6.29A41.91,41.91,0,0,1,1382.39,84a56.07,56.07,0,0,1,5.55,25.38,18.42,18.42,0,0,1-.57,4.88h-75.78q.57,10.9,5.27,18.43A30.63,30.63,0,0,0,1328.8,144a32.37,32.37,0,0,0,15.14,3.75q18.42,0,28.39-17.29l13.54,6.58A48.3,48.3,0,0,1,1369,155.48q-10.62,6.78-25.67,6.78A46.8,46.8,0,0,1,1318.74,155.68ZM1371,101.14a31.19,31.19,0,0,0-3.38-12A25.6,25.6,0,0,0,1358.14,79q-6.5-4.14-16.27-4.13a27.06,27.06,0,0,0-19.09,7.23q-7.8,7.23-10.24,19.08Z" fill="#fff"/><path d="M1425.92,155.57a46.37,46.37,0,0,1-17.3-18.24,54.07,54.07,0,0,1-6.21-26,54.69,54.69,0,0,1,6.21-26.13,45.72,45.72,0,0,1,17.3-18.24,48,48,0,0,1,25-6.58q15.6,0,26.22,7.24a39.61,39.61,0,0,1,15.14,19.26l-14.48,6a28,28,0,0,0-10.62-13.44q-7.05-4.61-17-4.6a29.15,29.15,0,0,0-15.79,4.6,33.45,33.45,0,0,0-11.75,12.87,39.71,39.71,0,0,0-4.42,19,39.64,39.64,0,0,0,4.42,19,33.31,33.31,0,0,0,11.75,12.87,29.07,29.07,0,0,0,15.79,4.61,31.67,31.67,0,0,0,17.49-4.7,28.07,28.07,0,0,0,10.91-13.34l14.29,6a42.28,42.28,0,0,1-15.71,19.18q-10.8,7.34-26.22,7.34A47.46,47.46,0,0,1,1425.92,155.57Z" fill="#fff"/><path d="M1510.15,24.62h16V64.3l-.75,13.16h.75a31.3,31.3,0,0,1,12.51-12.23,37,37,0,0,1,18.71-4.88q17.48,0,26.7,10.24t9.21,27.17v61.49h-16v-59c0-8.66-2.2-15-6.58-19.19s-10.1-6.19-17.11-6.19a23.1,23.1,0,0,0-13.82,4.51,31.92,31.92,0,0,0-10,11.64,32.27,32.27,0,0,0-3.67,14.86v53.41h-16Z" fill="#fff"/><path d="M1616.2,63.35h15.23V77.46h.75a33.09,33.09,0,0,1,12.42-12.23,33.79,33.79,0,0,1,17.48-4.88,32.87,32.87,0,0,1,18.33,5.06A28.41,28.41,0,0,1,1691.6,79a39,39,0,0,1,13.45-13.55,36.77,36.77,0,0,1,19.46-5.06q16.53,0,24.91,10.05t8.37,27.36v61.49H1742v-59q0-13.35-5.45-19.37t-16.17-6a21.89,21.89,0,0,0-13,4.13,28,28,0,0,0-9.12,11.09,34.81,34.81,0,0,0-3.29,15v54.16h-16V100.39q0-13.53-5.45-19.55t-16-6a21.52,21.52,0,0,0-13,4.22,28.32,28.32,0,0,0-9.12,11.28,35.34,35.34,0,0,0-3.3,15.14v53.78h-16Z" fill="#fff"/><path d="M1791.63,158.11a30.93,30.93,0,0,1-12.78-11.37,30.43,30.43,0,0,1-4.52-16.45q0-15.24,11.47-23.79t29-8.55a65,65,0,0,1,16.07,1.88,41,41,0,0,1,11.38,4.33V98.33q0-10.72-7.52-17.22t-19-6.48a32,32,0,0,0-14.85,3.48,27,27,0,0,0-10.72,9.69l-12-9a38.45,38.45,0,0,1,15.52-13.54,48.64,48.64,0,0,1,21.9-4.88q19.56,0,30.75,10.24t11.18,27.92v60.74h-15.23V145.52h-.75a34.33,34.33,0,0,1-12.41,11.84,35.91,35.91,0,0,1-18.62,4.9A41.45,41.45,0,0,1,1791.63,158.11ZM1827,144a31.37,31.37,0,0,0,11.1-11.09,29.35,29.35,0,0,0,4.13-15.24,39.36,39.36,0,0,0-11.09-4.89,50.6,50.6,0,0,0-13.92-1.88q-13.15,0-19.83,5.45a17.39,17.39,0,0,0-6.68,14.11,15.68,15.68,0,0,0,6,12.79q6,4.89,15.23,4.88A29,29,0,0,0,1827,144Z" fill="#fff"/><path d="M1879.63,24.62h16v84.6l45.13-45.87H1961v.75l-37.6,38L1962,158.5v.75h-19l-30.83-46.08-16.55,16.56v29.52h-16Z" fill="#fff"/><path d="M1989.81,155.68a45.74,45.74,0,0,1-17-18.15,54.92,54.92,0,0,1-6.11-26,57.05,57.05,0,0,1,5.74-25.57,46.35,46.35,0,0,1,16.26-18.62,43.31,43.31,0,0,1,24.45-6.95q14.1,0,24.44,6.29A41.91,41.91,0,0,1,2053.46,84a56.07,56.07,0,0,1,5.55,25.38,18.42,18.42,0,0,1-.57,4.88h-75.78q.57,10.9,5.27,18.43A30.63,30.63,0,0,0,1999.87,144a32.37,32.37,0,0,0,15.14,3.75q18.42,0,28.39-17.29l13.54,6.58a48.3,48.3,0,0,1-16.83,18.42q-10.62,6.78-25.67,6.78A46.8,46.8,0,0,1,1989.81,155.68Zm52.27-54.54a31.19,31.19,0,0,0-3.38-12A25.6,25.6,0,0,0,2029.21,79q-6.49-4.14-16.27-4.13a27.06,27.06,0,0,0-19.09,7.23q-7.8,7.23-10.24,19.08Z" fill="#fff"/><path d="M2077.62,63.35h15.23V78.77h.75q2.82-7.89,10.91-13.16a30.46,30.46,0,0,1,16.92-5.26,27.85,27.85,0,0,1,11.28,2.07v17.1a29.94,29.94,0,0,0-13.54-3,22.17,22.17,0,0,0-12.78,4,28.31,28.31,0,0,0-9.31,10.65,30.74,30.74,0,0,0-3.48,14.42v53.71h-16Z" fill="#fff"/><path d="M2152.08,155a39.47,39.47,0,0,1-14.67-18.53l14.3-6.39a28.66,28.66,0,0,0,10.62,13.35,27.33,27.33,0,0,0,15.51,4.7,30.47,30.47,0,0,0,15.42-3.67c4.26-2.43,6.39-5.92,6.39-10.44a11.36,11.36,0,0,0-5.08-9.67q-5.07-3.68-16-6.3l-11.66-3q-11.46-2.82-18.8-9.58T2140.8,88a22.77,22.77,0,0,1,5-14.56A31.76,31.76,0,0,1,2159,63.73a46.71,46.71,0,0,1,17.87-3.38,45.63,45.63,0,0,1,22.47,5.45,30.84,30.84,0,0,1,14,15.22l-13.92,6.4q-6.39-12.78-22.75-12.79a25.66,25.66,0,0,0-13.82,3.67Q2157,82,2157,87.6a10.43,10.43,0,0,0,4.13,8.56q4.14,3.3,12.41,5.37l13.92,3.56q14.1,3.59,21.25,10.62a23.29,23.29,0,0,1,7.14,17.22,24.83,24.83,0,0,1-5.08,15.5A32.19,32.19,0,0,1,2197,158.68a49.65,49.65,0,0,1-19.18,3.58Q2162.42,162.26,2152.08,155Z" fill="#fff"/><path d="M105.5,360.33H7.21A7.2,7.2,0,0,1,0,353.13V7.21A7.21,7.21,0,0,1,7.21,0H105.5a7.2,7.2,0,0,1,7.2,7.21V37.83A7.2,7.2,0,0,1,105.5,45H52.24a7.2,7.2,0,0,0-7.2,7.2V307.83a7.2,7.2,0,0,0,7.2,7.21H105.5a7.2,7.2,0,0,1,7.2,7.21v30.88A7.2,7.2,0,0,1,105.5,360.33Z" fill="#fff"/><path d="M324.08,0h97.86a7.19,7.19,0,0,1,7.17,7.21V353.13a7.18,7.18,0,0,1-7.17,7.2H324.09a7.19,7.19,0,0,1-7.18-7.2V322.5a7.19,7.19,0,0,1,7.18-7.2h53a7.2,7.2,0,0,0,7.18-7.21V52.5a7.2,7.2,0,0,0-7.18-7.21h-53a7.19,7.19,0,0,1-7.18-7.2V7.21A7.19,7.19,0,0,1,324.08,0Z" fill="#fff"/><path d="M271.86,176.33,254.11,150a14.33,14.33,0,0,1-1.56,4.41l-.09.15-33.75,51,53.73,81c2.78,4.9,5.92,6.14,10.11,6.2H328.6A10.81,10.81,0,0,0,339.41,282V276.3l-67.55-100Z" fill="#fff"/><path d="M339.41,78.39a10.81,10.81,0,0,0-10.81-10.8H282.66a10.91,10.91,0,0,0-10.8,10.8v89.88l67.55,100Z" fill="#fff"/><path d="M159.06,78.39a10.81,10.81,0,0,0-10.81-10.8H102.31A10.81,10.81,0,0,0,91.5,78.39V269.22l67.56-99.69Z" fill="#fff"/><path d="M248.13,141a17.85,17.85,0,0,0-1.67-2.38,11.42,11.42,0,0,0-8.32-3.49H194.08c-4.35,0-7.87,2.31-10.44,6.21L160.13,176,91.5,277.24V282a8.72,8.72,0,0,0,1,4.09,11,11,0,0,0,10.62,6.71h46.19c4.35,0,7.92-2.29,10.44-6.21l56.25-85h0l32.64-49.34A11.41,11.41,0,0,0,248.13,141Z" fill="#fff"/><text transform="translate(513.58 319.7)" font-size="123.9" fill="#fff" font-family="GoogleSans-Regular, Google Sans">Saudi Arabia</text></g></g></svg>